# xmcd CD database file
#
# Track frame offsets:
#	150
#	13122
#	24521
#	35749
#	46667
#	63091
#	78653
#	90104
#	103143
#	113135
#	124972
#	133749
#	148276
#	161546
#	171148
#	188701
#	204987
#	216843
#	230516
#	242850
#
# Disc length: 3402 seconds
#
# Revision: 1
# Processed by: cddbd v1.5.2PL0 Copyright (c) Steve Scherf et al.
# Submitted via: CDex 1.70beta2
#
DISCID=150d4814
DTITLE=Sinatra,Frank - I've Got You Under My Skin
DYEAR=2007
DGENRE=Jazz
TTITLE0=You Make Me Feel So Young
TTITLE1=It Happened In Monterey
TTITLE2=My Funny Valentine
TTITLE3=Too Marvelous For Words
TTITLE4=I've Got You Under My Skin
TTITLE5=Mood Indigo
TTITLE6=What Is This Thing Called Love
TTITLE7=I Get A Kick Out Of You
TTITLE8=Taking A Chance On Love
TTITLE9=A Foggy Day (In London Town)
TTITLE10=The Can't Take That Away From Me
TTITLE11=Just One Of Those Things
TTITLE12=In The Wee Small Hours Of The Morning
TTITLE13=All Of Me
TTITLE14=Old Devil Moon
TTITLE15=One For My Baby (And One More Fot The Road)
TTITLE16=Love Is Here To Stay
TTITLE17=Makin' Whoopee
TTITLE18=You Brought A New Kind Of Love To Me
TTITLE19=How About You
EXTD=YEAR: 2007
EXTT0=
EXTT1=
EXTT2=
EXTT3=
EXTT4=
EXTT5=
EXTT6=
EXTT7=
EXTT8=
EXTT9=
EXTT10=
EXTT11=
EXTT12=
EXTT13=
EXTT14=
EXTT15=
EXTT16=
EXTT17=
EXTT18=
EXTT19=
PLAYORDER=
